<mxfile host="Electron" modified="2024-01-11T03:33:51.400Z" agent="Mozilla/5.0 (Macintosh; Intel Mac OS X 10_15_7) AppleWebKit/537.36 (KHTML, like Gecko) draw.io/22.1.11 Chrome/114.0.5735.289 Electron/25.9.8 Safari/537.36" etag="QPleuAOOdfGwXjoyXt7m" version="22.1.11" type="device">
  <diagram name="第 1 页" id="RiyzWxT4RloGqWYnUwmC">
    <mxGraphModel dx="1468" dy="949" grid="0" gridSize="10" guides="1" tooltips="1" connect="1" arrows="1" fold="1" page="1" pageScale="1" pageWidth="1654" pageHeight="2336" math="0" shadow="0">
      <root>
        <mxCell id="0" />
        <mxCell id="1" parent="0" />
        <mxCell id="P8Mqd3i1ZP-7e1r_wHSP-1" value="&lt;font color=&quot;#ffffff&quot; style=&quot;font-size: 22px;&quot; face=&quot;Times New Roman&quot;&gt;File 1&lt;/font&gt;" style="shape=card;whiteSpace=wrap;html=1;size=18;fillColor=#FB8402;strokeColor=#FFB703;fontSize=22;" vertex="1" parent="1">
          <mxGeometry x="172" y="137" width="114" height="49" as="geometry" />
        </mxCell>
        <mxCell id="P8Mqd3i1ZP-7e1r_wHSP-2" value="&lt;font color=&quot;#ffffff&quot; style=&quot;font-size: 22px;&quot; face=&quot;Times New Roman&quot;&gt;File 2&lt;/font&gt;" style="shape=card;whiteSpace=wrap;html=1;size=18;fillColor=#FB8402;strokeColor=#FFB703;fontSize=22;" vertex="1" parent="1">
          <mxGeometry x="172" y="198" width="114" height="49" as="geometry" />
        </mxCell>
        <mxCell id="P8Mqd3i1ZP-7e1r_wHSP-3" value="&lt;font color=&quot;#ffffff&quot; style=&quot;font-size: 22px;&quot; face=&quot;Times New Roman&quot;&gt;File 3&lt;/font&gt;" style="shape=card;whiteSpace=wrap;html=1;size=18;fillColor=#FB8402;strokeColor=#FFB703;fontSize=22;" vertex="1" parent="1">
          <mxGeometry x="172" y="259" width="114" height="49" as="geometry" />
        </mxCell>
        <mxCell id="P8Mqd3i1ZP-7e1r_wHSP-4" value="&lt;font color=&quot;#ffffff&quot; style=&quot;font-size: 22px;&quot; face=&quot;Times New Roman&quot;&gt;File 4&lt;/font&gt;" style="shape=card;whiteSpace=wrap;html=1;size=18;fillColor=#FB8402;strokeColor=#FFB703;fontSize=22;" vertex="1" parent="1">
          <mxGeometry x="172" y="320" width="114" height="49" as="geometry" />
        </mxCell>
        <mxCell id="P8Mqd3i1ZP-7e1r_wHSP-5" value="" style="endArrow=classic;html=1;rounded=0;strokeWidth=2;fontSize=22;" edge="1" parent="1">
          <mxGeometry width="50" height="50" relative="1" as="geometry">
            <mxPoint x="286" y="161" as="sourcePoint" />
            <mxPoint x="360" y="161" as="targetPoint" />
          </mxGeometry>
        </mxCell>
        <mxCell id="P8Mqd3i1ZP-7e1r_wHSP-6" value="" style="endArrow=classic;html=1;rounded=0;strokeWidth=2;fontSize=22;" edge="1" parent="1">
          <mxGeometry width="50" height="50" relative="1" as="geometry">
            <mxPoint x="286" y="222" as="sourcePoint" />
            <mxPoint x="360" y="222" as="targetPoint" />
          </mxGeometry>
        </mxCell>
        <mxCell id="P8Mqd3i1ZP-7e1r_wHSP-7" value="" style="endArrow=classic;html=1;rounded=0;strokeWidth=2;fontSize=22;" edge="1" parent="1">
          <mxGeometry width="50" height="50" relative="1" as="geometry">
            <mxPoint x="286" y="283" as="sourcePoint" />
            <mxPoint x="360" y="283" as="targetPoint" />
          </mxGeometry>
        </mxCell>
        <mxCell id="P8Mqd3i1ZP-7e1r_wHSP-8" value="" style="endArrow=classic;html=1;rounded=0;strokeWidth=2;fontSize=22;" edge="1" parent="1">
          <mxGeometry width="50" height="50" relative="1" as="geometry">
            <mxPoint x="286" y="344" as="sourcePoint" />
            <mxPoint x="360" y="344" as="targetPoint" />
          </mxGeometry>
        </mxCell>
        <mxCell id="P8Mqd3i1ZP-7e1r_wHSP-17" style="edgeStyle=orthogonalEdgeStyle;rounded=0;orthogonalLoop=1;jettySize=auto;html=1;strokeWidth=2;fontSize=22;" edge="1" parent="1" source="P8Mqd3i1ZP-7e1r_wHSP-9">
          <mxGeometry relative="1" as="geometry">
            <mxPoint x="550" y="161.5" as="targetPoint" />
          </mxGeometry>
        </mxCell>
        <mxCell id="P8Mqd3i1ZP-7e1r_wHSP-9" value="&lt;font style=&quot;font-size: 22px;&quot; face=&quot;Times New Roman&quot;&gt;Read Task&lt;/font&gt;" style="rounded=0;whiteSpace=wrap;html=1;strokeWidth=2;fontSize=22;" vertex="1" parent="1">
          <mxGeometry x="360" y="137" width="123" height="49" as="geometry" />
        </mxCell>
        <mxCell id="P8Mqd3i1ZP-7e1r_wHSP-13" value="&lt;font style=&quot;font-size: 22px;&quot; face=&quot;Times New Roman&quot;&gt;Read Task&lt;/font&gt;" style="rounded=0;whiteSpace=wrap;html=1;strokeWidth=2;fontSize=22;" vertex="1" parent="1">
          <mxGeometry x="360" y="198" width="123" height="49" as="geometry" />
        </mxCell>
        <mxCell id="P8Mqd3i1ZP-7e1r_wHSP-14" value="&lt;font style=&quot;font-size: 22px;&quot; face=&quot;Times New Roman&quot;&gt;Read Task&lt;/font&gt;" style="rounded=0;whiteSpace=wrap;html=1;strokeWidth=2;fontSize=22;" vertex="1" parent="1">
          <mxGeometry x="360" y="259" width="123" height="49" as="geometry" />
        </mxCell>
        <mxCell id="P8Mqd3i1ZP-7e1r_wHSP-15" value="&lt;font style=&quot;font-size: 22px;&quot; face=&quot;Times New Roman&quot;&gt;Read Task&lt;/font&gt;" style="rounded=0;whiteSpace=wrap;html=1;strokeWidth=2;fontSize=22;" vertex="1" parent="1">
          <mxGeometry x="360" y="320" width="123" height="49" as="geometry" />
        </mxCell>
        <mxCell id="P8Mqd3i1ZP-7e1r_wHSP-16" value="&lt;font style=&quot;font-size: 22px;&quot; face=&quot;Times New Roman&quot; color=&quot;#ffffff&quot;&gt;Block&lt;/font&gt;" style="rounded=0;whiteSpace=wrap;html=1;fillColor=#219EBC;strokeColor=#90C9E6;fontSize=22;" vertex="1" parent="1">
          <mxGeometry x="551" y="137" width="110" height="49" as="geometry" />
        </mxCell>
        <mxCell id="P8Mqd3i1ZP-7e1r_wHSP-18" style="edgeStyle=orthogonalEdgeStyle;rounded=0;orthogonalLoop=1;jettySize=auto;html=1;strokeWidth=2;fontSize=22;" edge="1" parent="1">
          <mxGeometry relative="1" as="geometry">
            <mxPoint x="550" y="222.5" as="targetPoint" />
            <mxPoint x="483" y="223" as="sourcePoint" />
          </mxGeometry>
        </mxCell>
        <mxCell id="P8Mqd3i1ZP-7e1r_wHSP-19" value="&lt;font style=&quot;font-size: 22px;&quot; face=&quot;Times New Roman&quot; color=&quot;#ffffff&quot;&gt;Block&lt;/font&gt;" style="rounded=0;whiteSpace=wrap;html=1;fillColor=#219EBC;strokeColor=#90C9E6;fontSize=22;" vertex="1" parent="1">
          <mxGeometry x="551" y="198" width="110" height="49" as="geometry" />
        </mxCell>
        <mxCell id="P8Mqd3i1ZP-7e1r_wHSP-20" style="edgeStyle=orthogonalEdgeStyle;rounded=0;orthogonalLoop=1;jettySize=auto;html=1;strokeWidth=2;fontSize=22;" edge="1" parent="1">
          <mxGeometry relative="1" as="geometry">
            <mxPoint x="550" y="283.5" as="targetPoint" />
            <mxPoint x="483" y="284" as="sourcePoint" />
          </mxGeometry>
        </mxCell>
        <mxCell id="P8Mqd3i1ZP-7e1r_wHSP-21" value="&lt;font style=&quot;font-size: 22px;&quot; face=&quot;Times New Roman&quot; color=&quot;#ffffff&quot;&gt;Block&lt;/font&gt;" style="rounded=0;whiteSpace=wrap;html=1;fillColor=#219EBC;strokeColor=#90C9E6;fontSize=22;" vertex="1" parent="1">
          <mxGeometry x="551" y="259" width="110" height="49" as="geometry" />
        </mxCell>
        <mxCell id="P8Mqd3i1ZP-7e1r_wHSP-22" style="edgeStyle=orthogonalEdgeStyle;rounded=0;orthogonalLoop=1;jettySize=auto;html=1;strokeWidth=2;fontSize=22;" edge="1" parent="1">
          <mxGeometry relative="1" as="geometry">
            <mxPoint x="550" y="344.5" as="targetPoint" />
            <mxPoint x="483" y="345" as="sourcePoint" />
          </mxGeometry>
        </mxCell>
        <mxCell id="P8Mqd3i1ZP-7e1r_wHSP-23" value="&lt;font style=&quot;font-size: 22px;&quot; face=&quot;Times New Roman&quot; color=&quot;#ffffff&quot;&gt;Block&lt;/font&gt;" style="rounded=0;whiteSpace=wrap;html=1;fillColor=#219EBC;strokeColor=#90C9E6;fontSize=22;" vertex="1" parent="1">
          <mxGeometry x="551" y="320" width="110" height="49" as="geometry" />
        </mxCell>
        <mxCell id="P8Mqd3i1ZP-7e1r_wHSP-24" value="&lt;font color=&quot;#ffffff&quot; style=&quot;font-size: 22px;&quot; face=&quot;Times New Roman&quot;&gt;File 1&lt;/font&gt;" style="shape=card;whiteSpace=wrap;html=1;size=18;fillColor=#FB8402;strokeColor=#FFB703;fontSize=22;" vertex="1" parent="1">
          <mxGeometry x="918" y="137" width="114" height="49" as="geometry" />
        </mxCell>
        <mxCell id="P8Mqd3i1ZP-7e1r_wHSP-25" value="&lt;font color=&quot;#ffffff&quot; style=&quot;font-size: 22px;&quot; face=&quot;Times New Roman&quot;&gt;File 2&lt;/font&gt;" style="shape=card;whiteSpace=wrap;html=1;size=18;fillColor=#FB8402;strokeColor=#FFB703;fontSize=22;" vertex="1" parent="1">
          <mxGeometry x="918" y="198" width="114" height="49" as="geometry" />
        </mxCell>
        <mxCell id="P8Mqd3i1ZP-7e1r_wHSP-26" value="&lt;font color=&quot;#ffffff&quot; style=&quot;font-size: 22px;&quot; face=&quot;Times New Roman&quot;&gt;File 3&lt;/font&gt;" style="shape=card;whiteSpace=wrap;html=1;size=18;fillColor=#FB8402;strokeColor=#FFB703;fontSize=22;" vertex="1" parent="1">
          <mxGeometry x="918" y="259" width="114" height="49" as="geometry" />
        </mxCell>
        <mxCell id="P8Mqd3i1ZP-7e1r_wHSP-27" value="&lt;font color=&quot;#ffffff&quot; style=&quot;font-size: 22px;&quot; face=&quot;Times New Roman&quot;&gt;File 4&lt;/font&gt;" style="shape=card;whiteSpace=wrap;html=1;size=18;fillColor=#FB8402;strokeColor=#FFB703;fontSize=22;" vertex="1" parent="1">
          <mxGeometry x="918" y="320" width="114" height="49" as="geometry" />
        </mxCell>
        <mxCell id="P8Mqd3i1ZP-7e1r_wHSP-28" value="" style="endArrow=classic;html=1;rounded=0;strokeWidth=2;entryX=0;entryY=0.5;entryDx=0;entryDy=0;fontSize=22;" edge="1" parent="1" target="P8Mqd3i1ZP-7e1r_wHSP-34">
          <mxGeometry width="50" height="50" relative="1" as="geometry">
            <mxPoint x="1032" y="161" as="sourcePoint" />
            <mxPoint x="1106" y="161" as="targetPoint" />
          </mxGeometry>
        </mxCell>
        <mxCell id="P8Mqd3i1ZP-7e1r_wHSP-29" value="" style="endArrow=classic;html=1;rounded=0;strokeWidth=2;entryX=0;entryY=0.5;entryDx=0;entryDy=0;fontSize=22;" edge="1" parent="1" target="P8Mqd3i1ZP-7e1r_wHSP-34">
          <mxGeometry width="50" height="50" relative="1" as="geometry">
            <mxPoint x="1032" y="222" as="sourcePoint" />
            <mxPoint x="1106" y="222" as="targetPoint" />
          </mxGeometry>
        </mxCell>
        <mxCell id="P8Mqd3i1ZP-7e1r_wHSP-30" value="" style="endArrow=classic;html=1;rounded=0;strokeWidth=2;entryX=0;entryY=0.5;entryDx=0;entryDy=0;fontSize=22;" edge="1" parent="1" target="P8Mqd3i1ZP-7e1r_wHSP-35">
          <mxGeometry width="50" height="50" relative="1" as="geometry">
            <mxPoint x="1032" y="283" as="sourcePoint" />
            <mxPoint x="1106" y="283" as="targetPoint" />
          </mxGeometry>
        </mxCell>
        <mxCell id="P8Mqd3i1ZP-7e1r_wHSP-31" value="" style="endArrow=classic;html=1;rounded=0;strokeWidth=2;entryX=0;entryY=0.5;entryDx=0;entryDy=0;fontSize=22;" edge="1" parent="1" target="P8Mqd3i1ZP-7e1r_wHSP-35">
          <mxGeometry width="50" height="50" relative="1" as="geometry">
            <mxPoint x="1032" y="344" as="sourcePoint" />
            <mxPoint x="1106" y="344" as="targetPoint" />
          </mxGeometry>
        </mxCell>
        <mxCell id="P8Mqd3i1ZP-7e1r_wHSP-34" value="&lt;font style=&quot;font-size: 22px;&quot; face=&quot;Times New Roman&quot;&gt;Read Task&lt;/font&gt;" style="rounded=0;whiteSpace=wrap;html=1;strokeWidth=2;fontSize=22;" vertex="1" parent="1">
          <mxGeometry x="1106" y="169" width="123" height="49" as="geometry" />
        </mxCell>
        <mxCell id="P8Mqd3i1ZP-7e1r_wHSP-35" value="&lt;font style=&quot;font-size: 22px;&quot; face=&quot;Times New Roman&quot;&gt;Read Task&lt;/font&gt;" style="rounded=0;whiteSpace=wrap;html=1;strokeWidth=2;fontSize=22;" vertex="1" parent="1">
          <mxGeometry x="1106" y="290" width="123" height="49" as="geometry" />
        </mxCell>
        <mxCell id="P8Mqd3i1ZP-7e1r_wHSP-38" style="edgeStyle=orthogonalEdgeStyle;rounded=0;orthogonalLoop=1;jettySize=auto;html=1;strokeWidth=2;fontSize=22;" edge="1" parent="1">
          <mxGeometry relative="1" as="geometry">
            <mxPoint x="1296" y="193.5" as="targetPoint" />
            <mxPoint x="1229" y="194" as="sourcePoint" />
          </mxGeometry>
        </mxCell>
        <mxCell id="P8Mqd3i1ZP-7e1r_wHSP-39" value="&lt;font style=&quot;font-size: 22px;&quot; face=&quot;Times New Roman&quot; color=&quot;#ffffff&quot;&gt;Block&lt;/font&gt;" style="rounded=0;whiteSpace=wrap;html=1;fillColor=#219EBC;strokeColor=#90C9E6;fontSize=22;" vertex="1" parent="1">
          <mxGeometry x="1297" y="169" width="110" height="49" as="geometry" />
        </mxCell>
        <mxCell id="P8Mqd3i1ZP-7e1r_wHSP-40" style="edgeStyle=orthogonalEdgeStyle;rounded=0;orthogonalLoop=1;jettySize=auto;html=1;strokeWidth=2;fontSize=22;" edge="1" parent="1">
          <mxGeometry relative="1" as="geometry">
            <mxPoint x="1296" y="314.5" as="targetPoint" />
            <mxPoint x="1229" y="315" as="sourcePoint" />
          </mxGeometry>
        </mxCell>
        <mxCell id="P8Mqd3i1ZP-7e1r_wHSP-41" value="&lt;font style=&quot;font-size: 22px;&quot; face=&quot;Times New Roman&quot; color=&quot;#ffffff&quot;&gt;Block&lt;/font&gt;" style="rounded=0;whiteSpace=wrap;html=1;fillColor=#219EBC;strokeColor=#90C9E6;fontSize=22;" vertex="1" parent="1">
          <mxGeometry x="1297" y="290" width="110" height="49" as="geometry" />
        </mxCell>
        <mxCell id="P8Mqd3i1ZP-7e1r_wHSP-44" value="&lt;div style=&quot;font-size: 20px;&quot;&gt;&lt;font face=&quot;Times New Roman&quot; style=&quot;font-size: 20px;&quot;&gt;Using the default cluster parallelism:&lt;/font&gt;&lt;/div&gt;&lt;div style=&quot;font-size: 20px;&quot;&gt;&lt;font face=&quot;Comic Sans MS&quot; style=&quot;font-size: 20px;&quot;&gt;ray.data.read_csv(path)&lt;/font&gt;&lt;/div&gt;" style="text;html=1;strokeColor=none;fillColor=none;align=center;verticalAlign=middle;whiteSpace=wrap;rounded=0;" vertex="1" parent="1">
          <mxGeometry x="199" y="377" width="440" height="62" as="geometry" />
        </mxCell>
        <mxCell id="P8Mqd3i1ZP-7e1r_wHSP-45" value="&lt;div style=&quot;font-size: 20px;&quot;&gt;&lt;div&gt;&lt;font face=&quot;Times New Roman&quot;&gt;Manually specifying parallelism:&lt;/font&gt;&lt;/div&gt;&lt;div&gt;&lt;font face=&quot;Comic Sans MS&quot;&gt;ray.data.read_csv(path, parallelism=2)&lt;/font&gt;&lt;/div&gt;&lt;/div&gt;" style="text;html=1;strokeColor=none;fillColor=none;align=center;verticalAlign=middle;whiteSpace=wrap;rounded=0;" vertex="1" parent="1">
          <mxGeometry x="980" y="377" width="440" height="62" as="geometry" />
        </mxCell>
      </root>
    </mxGraphModel>
  </diagram>
</mxfile>
